# xmcd
#
# Track frame offsets: 
#        150
#        13283
#        22266
#        34770
#        44778
#        53610
#        66215
#        77709
#        87684
#        98947
#        108802
#        119972
#        133141
#        142861
#        152686
#        162194
#        173444
#        183125
#        192134
#        203607
#        221633
#        231204
#        247521
#        258609
#        271759
#        282403
#        294304
#        306440
#
# Disc length: 4193 seconds
#
# Revision: 1
# Processed by: cddbd v1.5.2PL0 Copyright (c) Steve Scherf et al.
# Submitted via: ExactAudioCopyFreeDBPlugin 1.0
#
DISCID=95105f1c
DTITLE=Various Artist - Hillbillies In Hell: Country Music's Tormente
DTITLE=d Testament (1952-1974)
DYEAR=2016
DGENRE=Country
TTITLE0=Harry Snyder - The Needle
TTITLE1=Wendell Austin and The Country Swings - LSD
TTITLE2=Johnny Price - Marijuana, The Devil Flower
TTITLE3=Red River Dave - California Hippie Murders!
TTITLE4=Jimmy Minor - Satan's Chauffeur
TTITLE5=Benny Joy - Dark Angel
TTITLE6=Billy Barton - The Devil, My Conscience And I
TTITLE7=Jack Cook - My Evil Mind
TTITLE8=Margie Singleton - Jesus Is My Pusher
TTITLE9=Cowboy Copas - Don't Shake Hands With The Devil
TTITLE10=Louie Innis - Suicide
TTITLE11=Don Bailey - Fourteen Stories Down
TTITLE12=Jesse Bruce - Demon Of Jealousy
TTITLE13=Johnny Tyler - God's Gonna Turn Us To Dust
TTITLE14=Art Killmer and The Up-Town Four - The Devil's Twist
TTITLE15=Buck Ritchey - The Slave
TTITLE16=Wayne, Pat and Keith - I'm Tired Of You, Satan
TTITLE17=The Sunshine Boys - We Need A Whole Lot More Of Jesus (And A 
TTITLE17=Lot Less Rock and Roll)
TTITLE18=Bill Anderson - Three A.M.
TTITLE19=Jimmy Newman - The Devil Was Laughing At Me
TTITLE20=Buddy Knox - I Think I'm Gonna Kill Myself
TTITLE21=Eddie Noack - Psycho
TTITLE22=Buddy Long - It's Nothin' To Me
TTITLE23=Jack Leonard - A Visit From The Devil
TTITLE24=Johnny David - Race With The Devil
TTITLE25=Billy Strange - Hell Train
TTITLE26=Johnny 'Pee Wee' Blaine - Lonely Street To Hell
TTITLE27=David Beatty and The Harmonettes - I Just Got Off The Devil's T
TTITLE27=rain
EXTD=
EXTT0=
EXTT1=
EXTT2=
EXTT3=
EXTT4=
EXTT5=
EXTT6=
EXTT7=
EXTT8=
EXTT9=
EXTT10=
EXTT11=
EXTT12=
EXTT13=
EXTT14=
EXTT15=
EXTT16=
EXTT17=
EXTT18=
EXTT19=
EXTT20=
EXTT21=
EXTT22=
EXTT23=
EXTT24=
EXTT25=
EXTT26=
EXTT27=
PLAYORDER=
